<?xml version="1.0" encoding="UTF-8" standalone="no"?>
<!DOCTYPE svg PUBLIC "-//W3C//DTD SVG 1.1//EN" "http://www.w3.org/Graphics/SVG/1.1/DTD/svg11.dtd">
<svg version="1.1" xmlns="http://www.w3.org/2000/svg" xmlns:xlink="http://www.w3.org/1999/xlink" preserveAspectRatio="xMidYMid meet" viewBox="0 0 640 640" width="640" height="640"><defs><path d="M536.44 95.33C549.39 82.37 570.4 82.37 583.36 95.33C597.44 109.41 616.2 128.18 630.28 142.25C643.24 155.21 643.24 176.22 630.28 189.18C554.49 264.97 350.58 468.88 274.79 544.67C261.83 557.63 240.82 557.63 227.86 544.67C213.79 530.59 195.02 511.82 180.94 497.75C167.98 484.79 167.98 463.78 180.94 450.82C256.73 375.03 460.64 171.12 536.44 95.33Z" id="caQOoIksc"></path><path d="M321.71 450.82C334.67 463.78 334.67 484.79 321.71 497.75C307.63 511.82 288.86 530.59 274.79 544.67C261.83 557.63 240.82 557.63 227.86 544.67C179.54 496.35 58.04 374.85 9.72 326.52C-3.24 313.57 -3.24 292.56 9.72 279.6C23.8 265.52 42.56 246.75 56.64 232.68C69.6 219.72 90.61 219.72 103.56 232.68C151.89 281 273.39 402.5 321.71 450.82Z" id="hhvigNCWv"></path></defs><g><g><g><use xlink:href="#caQOoIksc" opacity="1" fill="#fecf37" fill-opacity="1"></use></g><g><use xlink:href="#hhvigNCWv" opacity="1" fill="#ff8812" fill-opacity="1"></use></g></g></g></svg>